<svg width="149" height="30" viewBox="0 0 149 30" fill="none" xmlns="http://www.w3.org/2000/svg">
<path d="M0 0.0567627H6.07346L13.4524 13.4524L17.7663 6.07346H23.4424L13.4524 23.5182L13.9623 24.4073L25.0885 4.59766H16.6311L18.3907 0.0567627H34L16.6311 29.0618L13.9623 24.4073L13.4524 23.5182L0 0.0567627Z" fill="#FF4F22"/>
<path d="M12.8848 10.3873L6.98163 0H12.6578L15.7796 5.50584L12.8848 10.3873Z" fill="#FF4F22"/>
<path d="M51.06 21L44.78 6.9H47.52L52.18 17.72L56.84 6.9H59.48L53.2 21H51.06ZM60.7978 21V6.9H70.1778V8.94H63.2578V12.82H69.7378V14.86H63.2578V18.96H70.1778V21H60.7978ZM72.7314 21V6.9H78.8514C80.3981 6.9 81.5914 7.27333 82.4314 8.02C83.2714 8.75333 83.6914 9.78667 83.6914 11.12C83.6914 12.1733 83.4181 13.0467 82.8714 13.74C82.3247 14.42 81.5381 14.88 80.5114 15.12C81.1914 15.3333 81.7514 15.8467 82.1914 16.66L84.5514 21H81.7314L79.2914 16.5C79.0514 16.06 78.7647 15.76 78.4314 15.6C78.1114 15.44 77.6981 15.36 77.1914 15.36H75.2914V21H72.7314ZM75.2914 13.46H78.4114C80.2781 13.46 81.2114 12.7 81.2114 11.18C81.2114 9.67333 80.2781 8.92 78.4114 8.92H75.2914V13.46ZM89.4517 21V9.04H84.6117V6.9H96.8517V9.04H92.0117V21H89.4517ZM98.4736 21V6.9H101.034V21H98.4736ZM110.879 21.2C109.319 21.2 107.999 20.9067 106.919 20.32C105.852 19.7333 105.039 18.9 104.479 17.82C103.919 16.74 103.639 15.46 103.639 13.98C103.639 12.4867 103.925 11.2 104.499 10.12C105.072 9.02667 105.899 8.18667 106.979 7.6C108.059 7 109.352 6.7 110.859 6.7C111.845 6.7 112.772 6.84667 113.639 7.14C114.505 7.42 115.225 7.81333 115.799 8.32L114.939 10.32C114.312 9.82667 113.672 9.47333 113.019 9.26C112.365 9.04667 111.645 8.94 110.859 8.94C109.365 8.94 108.232 9.37333 107.459 10.24C106.699 11.1067 106.319 12.3533 106.319 13.98C106.319 15.62 106.712 16.8667 107.499 17.72C108.285 18.5733 109.452 19 110.999 19C111.439 19 111.885 18.9667 112.339 18.9C112.805 18.82 113.265 18.7067 113.719 18.56V15.28H110.479V13.38H115.859V20.16C115.205 20.48 114.432 20.7333 113.539 20.92C112.645 21.1067 111.759 21.2 110.879 21.2ZM125.145 21.2C123.785 21.2 122.592 20.9 121.565 20.3C120.552 19.7 119.765 18.86 119.205 17.78C118.645 16.6867 118.365 15.4067 118.365 13.94C118.365 12.46 118.645 11.18 119.205 10.1C119.765 9.02 120.552 8.18667 121.565 7.6C122.578 7 123.772 6.7 125.145 6.7C126.518 6.7 127.712 7 128.725 7.6C129.738 8.18667 130.525 9.02 131.085 10.1C131.645 11.18 131.925 12.4533 131.925 13.92C131.925 15.4 131.645 16.6867 131.085 17.78C130.525 18.86 129.738 19.7 128.725 20.3C127.712 20.9 126.518 21.2 125.145 21.2ZM125.145 19C126.438 19 127.445 18.5533 128.165 17.66C128.885 16.7667 129.245 15.5267 129.245 13.94C129.245 12.34 128.885 11.1 128.165 10.22C127.458 9.34 126.452 8.9 125.145 8.9C123.852 8.9 122.845 9.34 122.125 10.22C121.405 11.1 121.045 12.34 121.045 13.94C121.045 15.5267 121.405 16.7667 122.125 17.66C122.845 18.5533 123.852 19 125.145 19ZM140.848 21.2C139.488 21.2 138.295 20.9 137.268 20.3C136.255 19.7 135.468 18.86 134.908 17.78C134.348 16.6867 134.068 15.4067 134.068 13.94C134.068 12.46 134.348 11.18 134.908 10.1C135.468 9.02 136.255 8.18667 137.268 7.6C138.282 7 139.475 6.7 140.848 6.7C142.222 6.7 143.415 7 144.428 7.6C145.442 8.18667 146.228 9.02 146.788 10.1C147.348 11.18 147.628 12.4533 147.628 13.92C147.628 15.4 147.348 16.6867 146.788 17.78C146.228 18.86 145.442 19.7 144.428 20.3C143.415 20.9 142.222 21.2 140.848 21.2ZM140.848 19C142.142 19 143.148 18.5533 143.868 17.66C144.588 16.7667 144.948 15.5267 144.948 13.94C144.948 12.34 144.588 11.1 143.868 10.22C143.162 9.34 142.155 8.9 140.848 8.9C139.555 8.9 138.548 9.34 137.828 10.22C137.108 11.1 136.748 12.34 136.748 13.94C136.748 15.5267 137.108 16.7667 137.828 17.66C138.548 18.5533 139.555 19 140.848 19Z" fill="#2F3A4F"/>
</svg>
